HIERARCHY
ROOT Hips
{
  OFFSET 5.84602e-005 68.8428 3.50346
  CHANNELS 6 Xposition Yposition Zposition Zrotation Xrotation Yrotation
  JOINT Spine
  {
    OFFSET 0 8.597 -4.6522
    CHANNELS 3 Zrotation Xrotation Yrotation
    JOINT Spine1
    {
      OFFSET 0 7.8454 0.4098
      CHANNELS 3 Zrotation Xrotation Yrotation
      JOINT Spine2
      {
        OFFSET 0 9.7078 -2.1609
        CHANNELS 3 Zrotation Xrotation Yrotation
        JOINT Neck
        {
          OFFSET 0 21.8761 -0.4549
          CHANNELS 3 Zrotation Xrotation Yrotation
          JOINT Head
          {
            OFFSET 0 12.3537 3.3602
            CHANNELS 3 Zrotation Xrotation Yrotation
            End Site
            {
              OFFSET 0.0001 18.9506 0.5657
            }
          }
        }
        JOINT LeftShoulder
        {
          OFFSET 2.2086 21.1115 7.2329
          CHANNELS 3 Zrotation Xrotation Yrotation
          JOINT LeftArm
          {
            OFFSET 13.1193 3.0282 -4.8998
            CHANNELS 3 Zrotation Xrotation Yrotation
            JOINT LeftForeArm
            {
              OFFSET 27.4081 -0.0973053 -0.2375
              CHANNELS 3 Zrotation Xrotation Yrotation
              JOINT LeftHand
              {
                OFFSET 22.8641 0.0662994 -0.1369
                CHANNELS 3 Zrotation Xrotation Yrotation
                JOINT LeftHandIndex1
                {
                  OFFSET 8.8614 0.775009 2.4612
                  CHANNELS 3 Zrotation Xrotation Yrotation
                  JOINT LeftHandIndex2
                  {
                    OFFSET 3.3146 -0.808304 0.5841
                    CHANNELS 3 Zrotation Xrotation Yrotation
                    JOINT LeftHandIndex3
                    {
                      OFFSET 2.2628 -0.552002 0.3989
                      CHANNELS 3 Zrotation Xrotation Yrotation
                      End Site
                      {
                        OFFSET 1.6102 -0.4807 0.2612
                      }
                    }
                  }
                }
                JOINT LeftHandMiddle1
                {
                  OFFSET 8.9937 0.895004 0.2143
                  CHANNELS 3 Zrotation Xrotation Yrotation
                  JOINT LeftHandMiddle2
                  {
                    OFFSET 4.0984 0.0113983 -0.0242
                    CHANNELS 3 Zrotation Xrotation Yrotation
                    JOINT LeftHandMiddle3
                    {
                      OFFSET 2.2716 0.00689697 -0.0138001
                      CHANNELS 3 Zrotation Xrotation Yrotation
                      End Site
                      {
                        OFFSET 2.0404 -0.1441 0.0027
                      }
                    }
                  }
                }
                JOINT LeftHandRing1
                {
                  OFFSET 8.5234 0.597198 -2.0164
                  CHANNELS 3 Zrotation Xrotation Yrotation
                  JOINT LeftHandRing2
                  {
                    OFFSET 3.7188 -0.188293 -0.2328
                    CHANNELS 3 Zrotation Xrotation Yrotation
                    JOINT LeftHandRing3
                    {
                      OFFSET 2.1191 -0.106598 -0.1332
                      CHANNELS 3 Zrotation Xrotation Yrotation
                      End Site
                      {
                        OFFSET 1.8737 -0.2304 -0.0886
                      }
                    }
                  }
                }
                JOINT LeftHandPinky1
                {
                  OFFSET 7.9094 -0.601089 -3.4825
                  CHANNELS 3 Zrotation Xrotation Yrotation
                  JOINT LeftHandPinky2
                  {
                    OFFSET 2.2874 -0.477005 -0.6314
                    CHANNELS 3 Zrotation Xrotation Yrotation
                    JOINT LeftHandPinky3
                    {
                      OFFSET 1.6774 -0.349396 -0.4633
                      CHANNELS 3 Zrotation Xrotation Yrotation
                      End Site
                      {
                        OFFSET 1.4888 -0.4091 -0.3416
                      }
                    }
                  }
                }
                JOINT LeftHandThumb1
                {
                  OFFSET 1.833 -1.3875 1.3896
                  CHANNELS 3 Zrotation Xrotation Yrotation
                  JOINT LeftHandThumb2
                  {
                    OFFSET 3.4129 -1.121 2.5732
                    CHANNELS 3 Zrotation Xrotation Yrotation
                    JOINT LeftHandThumb3
                    {
                      OFFSET 2.2474 -0.804199 1.6192
                      CHANNELS 3 Zrotation Xrotation Yrotation
                      End Site
                      {
                        OFFSET 1.6527 -0.5689 1.1317
                      }
                    }
                  }
                }
              }
            }
          }
        }
        JOINT RightShoulder
        {
          OFFSET -2.2086 21.1115 7.2329
          CHANNELS 3 Zrotation Xrotation Yrotation
          JOINT RightArm
          {
            OFFSET -13.1216 3.0287 -4.9007
            CHANNELS 3 Zrotation Xrotation Yrotation
            JOINT RightForeArm
            {
              OFFSET -27.4081 -0.0973053 -0.2375
              CHANNELS 3 Zrotation Xrotation Yrotation
              JOINT RightHand
              {
                OFFSET -22.8641 0.0664063 -0.1369
                CHANNELS 3 Zrotation Xrotation Yrotation
                JOINT RightHandIndex1
                {
                  OFFSET -8.8614 0.774994 2.4612
                  CHANNELS 3 Zrotation Xrotation Yrotation
                  JOINT RightHandIndex2
                  {
                    OFFSET -3.3146 -0.808304 0.5841
                    CHANNELS 3 Zrotation Xrotation Yrotation
                    JOINT RightHandIndex3
                    {
                      OFFSET -2.2628 -0.552002 0.3989
                      CHANNELS 3 Zrotation Xrotation Yrotation
                      End Site
                      {
                        OFFSET -1.6102 -0.4807 0.2612
                      }
                    }
                  }
                }
                JOINT RightHandMiddle1
                {
                  OFFSET -8.9937 0.894989 0.2143
                  CHANNELS 3 Zrotation Xrotation Yrotation
                  JOINT RightHandMiddle2
                  {
                    OFFSET -4.0984 0.0113983 -0.0242
                    CHANNELS 3 Zrotation Xrotation Yrotation
                    JOINT RightHandMiddle3
                    {
                      OFFSET -2.2716 0.00691223 -0.0138001
                      CHANNELS 3 Zrotation Xrotation Yrotation
                      End Site
                      {
                        OFFSET -2.0404 -0.1441 0.0027
                      }
                    }
                  }
                }
                JOINT RightHandRing1
                {
                  OFFSET -8.5234 0.597198 -2.0164
                  CHANNELS 3 Zrotation Xrotation Yrotation
                  JOINT RightHandRing2
                  {
                    OFFSET -3.7188 -0.188309 -0.2328
                    CHANNELS 3 Zrotation Xrotation Yrotation
                    JOINT RightHandRing3
                    {
                      OFFSET -2.1191 -0.106598 -0.1332
                      CHANNELS 3 Zrotation Xrotation Yrotation
                      End Site
                      {
                        OFFSET -1.8737 -0.2304 -0.0886
                      }
                    }
                  }
                }
                JOINT RightHandPinky1
                {
                  OFFSET -7.9094 -0.601105 -3.4825
                  CHANNELS 3 Zrotation Xrotation Yrotation
                  JOINT RightHandPinky2
                  {
                    OFFSET -2.2874 -0.477005 -0.6314
                    CHANNELS 3 Zrotation Xrotation Yrotation
                    JOINT RightHandPinky3
                    {
                      OFFSET -1.6774 -0.349396 -0.4633
                      CHANNELS 3 Zrotation Xrotation Yrotation
                      End Site
                      {
                        OFFSET -1.4888 -0.4091 -0.3416
                      }
                    }
                  }
                }
                JOINT RightHandThumb1
                {
                  OFFSET -1.833 -1.38751 1.3896
                  CHANNELS 3 Zrotation Xrotation Yrotation
                  JOINT RightHandThumb2
                  {
                    OFFSET -3.41299 -1.12099 2.5732
                    CHANNELS 3 Zrotation Xrotation Yrotation
                    JOINT RightHandThumb3
                    {
                      OFFSET -2.24741 -0.804108 1.6192
                      CHANNELS 3 Zrotation Xrotation Yrotation
                      End Site
                      {
                        OFFSET -1.6527 -0.5689 1.1317
                      }
                    }
                  }
                }
              }
            }
          }
        }
      }
    }
  }
  JOINT RightUpLeg
  {
    OFFSET -9.1966 3.8861 -0.7581
    CHANNELS 3 Zrotation Xrotation Yrotation
    JOINT RightLeg
    {
      OFFSET -0.7359 -41.0265 0
      CHANNELS 3 Zrotation Xrotation Yrotation
      JOINT RightFoot
      {
        OFFSET 0 -40.2855 0
        CHANNELS 3 Zrotation Xrotation Yrotation
        JOINT RightToeBase
        {
          OFFSET 0 -5.6122 11.7359
          CHANNELS 3 Zrotation Xrotation Yrotation
          End Site
          {
            OFFSET 0 0 7.8731
          }
        }
      }
    }
  }
  JOINT LeftUpLeg
  {
    OFFSET 9.1965 3.8864 -0.7581
    CHANNELS 3 Zrotation Xrotation Yrotation
    JOINT LeftLeg
    {
      OFFSET 0.7359 -41.0268 0
      CHANNELS 3 Zrotation Xrotation Yrotation
      JOINT LeftFoot
      {
        OFFSET 0 -40.2855 0
        CHANNELS 3 Zrotation Xrotation Yrotation
        JOINT LeftToeBase
        {
          OFFSET 0 -5.6122 11.7359
          CHANNELS 3 Zrotation Xrotation Yrotation
          End Site
          {
            OFFSET 0 0 7.8731
          }
        }
      }
    }
  }
}
MOTION
Frames:	4
Frame Time:	0.0333333
-41.4122 8.10263 13.4077 89.9982 1.99553 92.0096 -0.611665 7.94679 -0.139785 -1.22143 15.8947 -0.195816 -1.22145 15.8947 -0.195804 -0.000213602 -17.0008 8.5258e-006 -1.53439e-005 -39.0018 -5.26617e-006 3.84672 12.8887 -40.4658 -35.052 -0.127244 39.9987 -1.46706 -31.1492 -81.1058 -4.39356 1.12254 19.1178 3.18055e-015 -3.18055e-015 -3.18055e-015 1.59028e-015 0 -3.18055e-015 3.18055e-015 -3.18055e-015 -3.18055e-015 3.18055e-015 -3.18055e-015 -3.18055e-015 -0.0146362 -9.15272e-005 -4.29436e-007 -1.76556e-031 3.18055e-015 3.18055e-015 3.18055e-015 -3.18055e-015 -3.18055e-015 -0.0187996 -0.00117251 6.15008e-005 -3.18055e-015 6.36111e-015 -6.36111e-015 3.18055e-015 -3.18055e-015 -3.18055e-015 -0.0122572 -0.00324435 0.000673456 7.95139e-015 3.18055e-015 -9.54166e-015 3.18055e-015 -3.18055e-015 -3.18055e-015 1.59028e-015 0 -3.18055e-015 3.18055e-015 -3.18055e-015 -3.18055e-015 6.08296 20.9759 23.6295 44.7074 -9.01419 -44.4484 0.252278 -4.23454 79.7145 15.9493 -0.953227 4.14801 7.95139e-016 9.54166e-015 -2.38542e-015 -3.23134e-007 1.58873e-009 -2.15386e-007 -5.75627e-008 -3.47333e-008 4.04765e-007 7.95139e-016 9.54166e-015 -2.38542e-015 0.0149706 -9.20161e-005 -1.36831e-006 -1.59028e-015 6.36111e-015 -2.78299e-015 7.95139e-016 9.54166e-015 -2.38542e-015 0.0189618 -0.00118714 -5.81422e-005 7.95139e-016 3.18055e-015 -3.57812e-015 7.95139e-016 9.54166e-015 -2.38542e-015 0.012215 -0.00323212 -0.000674689 -5.91817e-008 -3.42591e-008 4.0486e-007 7.95139e-016 9.54166e-015 -2.38542e-015 -3.23134e-007 1.58873e-009 -2.15386e-007 -5.75627e-008 -3.47333e-008 4.04765e-007 -46.0446 -28.7182 -73.0794 -79.7551 48.8579 103.173 10.046 13.0137 -25.4877 -8.70719e-006 2.21378e-006 3.93627e-006 1.64103 -0.534642 -1.22972 -1.42568 3.16961 0.923684 -17.2323 5.3645 30.4459 2.29511e-006 -3.45727e-006 -1.63975e-006 
-41.4123 8.10255 13.4078 89.9982 1.99555 92.0096 -0.609824 8.0555 -0.14084 -1.21769 16.1122 -0.196941 -1.21768 16.1122 -0.196962 -0.000234784 -17.0009 -2.38556e-006 -1.49797e-005 -39.0018 -6.94111e-006 4.15381 12.6893 -40.5683 -35.2015 -0.229902 40.1461 -1.39578 -31.7164 -81.9328 -4.13753 0.883055 18.9958 -6.36111e-015 -3.18055e-015 -3.18055e-015 -1.41902e-006 2.56855e-006 9.60373e-008 0 3.18055e-015 -0 -6.36111e-015 -3.18055e-015 -3.18055e-015 -0.0146715 -8.85141e-005 -1.90479e-007 1.59028e-015 1.27222e-014 -6.36111e-015 -6.36111e-015 -3.18055e-015 -3.18055e-015 -0.0187648 -0.0011757 5.75503e-005 -4.77083e-015 1.27222e-014 -9.54166e-015 -6.36111e-015 -3.18055e-015 -3.18055e-015 -0.0123228 -0.00325485 0.00068133 5.21473e-007 -1.4073e-006 -1.20322e-007 -6.36111e-015 -3.18055e-015 -3.18055e-015 -1.41902e-006 2.56855e-006 9.60373e-008 0 3.18055e-015 -0 5.99016 20.8856 23.8837 44.7074 -9.01423 -44.4485 0.252268 -4.23453 79.7145 15.6536 -1.15146 4.37942 -3.21859e-007 1.30244e-008 7.30867e-007 -7.95139e-016 3.18055e-015 -2.38542e-015 3.80776e-007 3.31992e-008 -1.89193e-007 -3.21859e-007 1.30244e-008 7.30867e-007 0.0149658 -9.43729e-005 4.66881e-007 3.80774e-007 3.31745e-008 -1.89197e-007 -3.21859e-007 1.30244e-008 7.30867e-007 0.0189894 -0.00119476 -6.05826e-005 3.80771e-007 3.31682e-008 -1.89202e-007 -3.21859e-007 1.30244e-008 7.30867e-007 0.0122235 -0.00323742 -0.000673776 3.80769e-007 3.31817e-008 -1.89207e-007 -3.21859e-007 1.30244e-008 7.30867e-007 -7.95139e-016 3.18055e-015 -2.38542e-015 3.80776e-007 3.31992e-008 -1.89193e-007 -45.6625 -28.9267 -72.4785 -79.7564 48.858 103.178 10.5109 12.7866 -25.9118 2.64834e-031 4.77083e-015 -3.18055e-015 1.6411 -0.534319 -1.22972 -1.42567 3.16882 0.92373 -17.2324 5.36496 30.446 1.59028e-015 -1.59028e-015 -0 
-41.4123 8.10248 13.4078 89.9982 1.99555 92.0096 -0.60806 8.15359 -0.14172 -1.21429 16.308 -0.198009 -1.2143 16.308 -0.197991 -0.00031086 -17.0008 -0.000101928 -7.84531e-006 -39.0018 -8.29311e-006 4.42976 12.5092 -40.6594 -35.3358 -0.322692 40.2785 -1.33869 -32.2299 -82.6797 -3.90749 0.667009 18.887 1.59028e-015 6.36111e-015 -0 -1.76556e-031 3.18055e-015 3.18055e-015 -3.18055e-015 6.36111e-015 6.36111e-015 1.59028e-015 6.36111e-015 -0 -0.0146555 -8.339e-005 -4.11997e-006 1.11162e-006 -9.20637e-007 1.3156e-006 1.59028e-015 6.36111e-015 -0 -0.0187288 -0.00116944 5.59548e-005 -1.59028e-015 -3.18055e-015 -0 1.59028e-015 6.36111e-015 -0 -0.012305 -0.00324873 0.000673308 -3.18055e-015 3.18055e-015 3.18055e-015 1.59028e-015 6.36111e-015 -0 -1.76556e-031 3.18055e-015 3.18055e-015 -3.18055e-015 6.36111e-015 6.36111e-015 5.90705 20.8041 24.1123 44.7074 -9.0142 -44.4484 0.252276 -4.23454 79.7145 15.3879 -1.33104 4.58681 7.95139e-016 -6.36111e-015 -1.59028e-015 7.95139e-016 -1.59028e-014 -1.59028e-015 -7.95139e-016 -1.27222e-014 -3.97569e-016 7.95139e-016 -6.36111e-015 -1.59028e-015 0.0149545 -9.17008e-005 -3.17284e-007 2.38542e-015 -1.27222e-014 -7.95139e-016 7.95139e-016 -6.36111e-015 -1.59028e-015 0.0190153 -0.00118779 -6.126e-005 1.59028e-015 3.18055e-015 -2.38542e-015 7.95139e-016 -6.36111e-015 -1.59028e-015 0.0122956 -0.00325275 -0.000677349 -7.95139e-016 -9.54166e-015 -1.59028e-015 7.95139e-016 -6.36111e-015 -1.59028e-015 7.95139e-016 -1.59028e-014 -1.59028e-015 -7.95139e-016 -1.27222e-014 -3.97569e-016 -45.3157 -29.1119 -71.9355 -79.7575 48.858 103.183 10.9277 12.5789 -26.2917 1.64745e-006 -9.20271e-007 3.00025e-007 1.64116 -0.534171 -1.22973 -1.42566 3.1684 0.923788 -17.2324 5.36523 30.446 -1.56266e-006 3.14029e-006 -1.01802e-006 
-41.4123 8.10241 13.4079 89.9982 1.99558 92.0096 -0.606341 8.25147 -0.142607 -1.21088 16.5039 -0.199061 -1.21087 16.5039 -0.199053 -0.000314886 -17.0009 1.07124e-006 1.83803e-006 -39.0018 1.90462e-006 4.70525 12.3288 -40.7495 -35.4698 -0.415775 40.4106 -1.28917 -32.7447 -83.4311 -3.67782 0.450475 18.779 7.95139e-015 6.36111e-015 -6.36111e-015 7.95139e-015 0 6.36111e-015 7.95139e-015 0 -0 7.95139e-015 6.36111e-015 -6.36111e-015 -0.0146484 -8.9039e-005 8.4683e-007 6.6573e-007 -1.42334e-006 -2.70859e-007 7.95139e-015 6.36111e-015 -6.36111e-015 -0.0187636 -0.00117535 5.75356e-005 -6.36111e-015 6.36111e-015 3.18055e-015 7.95139e-015 6.36111e-015 -6.36111e-015 -0.0122574 -0.00324317 0.000674608 -3.18055e-015 3.18055e-015 6.36111e-015 7.95139e-015 6.36111e-015 -6.36111e-015 7.95139e-015 0 6.36111e-015 7.95139e-015 0 -0 5.82433 20.7222 24.3406 44.7074 -9.01422 -44.4485 0.25226 -4.23454 79.7145 15.1229 -1.51161 4.79343 -3.59087e-008 -2.54491e-008 6.83587e-007 -1.14663e-007 -3.08061e-006 3.39948e-007 -3.59087e-008 -2.54489e-008 6.83587e-007 -3.59087e-008 -2.54491e-008 6.83587e-007 0.014951 -9.15179e-005 8.50009e-007 -3.69005e-008 -2.53539e-008 6.8359e-007 -3.59087e-008 -2.54491e-008 6.83587e-007 0.0189847 -0.00118911 -5.7798e-005 -3.71616e-008 -2.52569e-008 6.83595e-007 -3.59087e-008 -2.54491e-008 6.83587e-007 0.012273 -0.003246 -0.0006746 -3.67037e-008 -2.51607e-008 6.83635e-007 -3.59087e-008 -2.54491e-008 6.83587e-007 -1.14663e-007 -3.08061e-006 3.39948e-007 -3.59087e-008 -2.54489e-008 6.83587e-007 -44.9661 -29.2942 -71.39 -79.7586 48.8582 103.188 11.3428 12.3685 -26.6698 -1.87756e-007 -3.55596e-007 1.42438e-007 1.64103 -0.544051 -1.2297 -1.42572 3.18827 0.922471 -17.2325 5.35523 30.4445 -1.58449e-006 3.49176e-006 -2.5358e-006 
